<mxfile host="app.diagrams.net" modified="2023-10-06T07:59:49.983Z" agent="Mozilla/5.0 (Windows NT 10.0; Win64; x64) AppleWebKit/537.36 (KHTML, like Gecko) Chrome/113.0.0.0 Safari/537.36" version="22.0.3" etag="pKZ1KqAr76Fa41n7DWw2" type="github">
  <diagram name="Страница — 1" id="LPWj_3ig-4j2mK9FM12O">
    <mxGraphModel>
      <root>
        <mxCell id="0" />
        <mxCell id="1" parent="0" />
      </root>
    </mxGraphModel>
  </diagram>
</mxfile>
